<svg xmlns="http://www.w3.org/2000/svg" viewBox="0 0 1820 790" font-family="'DejaVu Sans','Segoe UI',Arial,sans-serif">
<defs><marker id="ar" markerWidth="9" markerHeight="9" refX="6" refY="3" orient="auto" markerUnits="strokeWidth"><path d="M0,0 L6,3 L0,6 Z" fill="#9aa0a6"/></marker></defs>
<rect x="0" y="0" width="1820" height="790" fill="#ffffff"/>
<text x="910.0" y="72" text-anchor="middle" font-size="46" font-weight="800" fill="#1f2a3a">Custom GRU Architecture</text>
<rect x="55" y="130" width="1710" height="510" rx="26" fill="#f0f0f0"/>

<text x="170" y="218" text-anchor="middle" font-size="27" font-weight="700" fill="#1f2a3a">Input Layer</text>
<rect x="125.0" y="250" width="90" height="330" rx="10" fill="#cfe0fb" stroke="#3b82f6" stroke-width="3"/>
<circle cx="170" cy="305.0" r="7" fill="#2563eb"/>
<circle cx="170" cy="360.0" r="7" fill="#2563eb"/>
<circle cx="170" cy="415.0" r="7" fill="#2563eb"/>
<circle cx="170" cy="470.0" r="7" fill="#2563eb"/>
<circle cx="170" cy="525.0" r="7" fill="#2563eb"/>
<text x="170" y="620" text-anchor="middle" font-size="24" fill="#6b7280">F x 1</text>
<path d="M220,415.0 L340,415.0" stroke="#9aa0a6" stroke-width="4" marker-end="url(#ar)"/>
<text x="390" y="218" text-anchor="middle" font-size="27" font-weight="700" fill="#1f2a3a">GRU(64)</text>
<rect x="345.0" y="250" width="90" height="330" rx="10" fill="#fde4bb" stroke="#f0a020" stroke-width="3"/>
<circle cx="390" cy="305.0" r="7" fill="#e8900f"/>
<circle cx="390" cy="360.0" r="7" fill="#e8900f"/>
<circle cx="390" cy="415.0" r="7" fill="#e8900f"/>
<circle cx="390" cy="470.0" r="7" fill="#e8900f"/>
<circle cx="390" cy="525.0" r="7" fill="#e8900f"/>
<text x="390" y="620" text-anchor="middle" font-size="24" fill="#6b7280">returns</text>
<text x="390" y="650" text-anchor="middle" font-size="24" fill="#6b7280">sequence</text>
<path d="M440,415.0 L520,415.0" stroke="#9aa0a6" stroke-width="4" marker-end="url(#ar)"/>
<rect x="525.0" y="260.0" width="170" height="90" rx="12" fill="#eeddfd" stroke="#a855f7" stroke-width="3"/>
<text x="610" y="313.8" text-anchor="middle" font-size="25" font-weight="700" fill="#8b3ce0">LayerNorm</text>
<rect x="525.0" y="390.0" width="170" height="90" rx="12" fill="#fbdada" stroke="#ef4444" stroke-width="3"/>
<text x="610" y="443.4" text-anchor="middle" font-size="24" font-weight="700" fill="#dc2626">Dropout (0.3)</text>
<path d="M700,415.0 L800,415.0" stroke="#9aa0a6" stroke-width="4" marker-end="url(#ar)"/>
<text x="850" y="218" text-anchor="middle" font-size="27" font-weight="700" fill="#1f2a3a">GRU(64)</text>
<rect x="805.0" y="250" width="90" height="330" rx="10" fill="#c9efcf" stroke="#22b455" stroke-width="3"/>
<circle cx="850" cy="305.0" r="7" fill="#16a34a"/>
<circle cx="850" cy="360.0" r="7" fill="#16a34a"/>
<circle cx="850" cy="415.0" r="7" fill="#16a34a"/>
<circle cx="850" cy="470.0" r="7" fill="#16a34a"/>
<circle cx="850" cy="525.0" r="7" fill="#16a34a"/>
<text x="850" y="620" text-anchor="middle" font-size="24" fill="#6b7280">returns</text>
<text x="850" y="650" text-anchor="middle" font-size="24" fill="#6b7280">last step</text>
<path d="M900,415.0 L990,415.0" stroke="#9aa0a6" stroke-width="4" marker-end="url(#ar)"/>
<rect x="990.0" y="365.0" width="160" height="100" rx="12" fill="#fbdada" stroke="#ef4444" stroke-width="3"/>
<text x="1070" y="408.4" text-anchor="middle" font-size="24" font-weight="700" fill="#dc2626">Dropout</text>
<text x="1070" y="438.4" text-anchor="middle" font-size="24" font-weight="700" fill="#dc2626">(0.2)</text>
<path d="M1150,415.0 L1240,415.0" stroke="#9aa0a6" stroke-width="4" marker-end="url(#ar)"/>
<text x="1290" y="218" text-anchor="middle" font-size="27" font-weight="700" fill="#1f2a3a">Dense(64)</text>
<rect x="1245.0" y="250" width="90" height="330" rx="10" fill="#fbd6e4" stroke="#ec4899" stroke-width="3"/>
<circle cx="1290" cy="332.5" r="7" fill="#db2777"/>
<circle cx="1290" cy="415.0" r="7" fill="#db2777"/>
<circle cx="1290" cy="497.5" r="7" fill="#db2777"/>
<text x="1290" y="620" text-anchor="middle" font-size="24" fill="#6b7280">ReLU</text>
<path d="M1340,415.0 L1430,415.0" stroke="#9aa0a6" stroke-width="4" marker-end="url(#ar)"/>
<rect x="1430.0" y="365.0" width="160" height="100" rx="12" fill="#fbdada" stroke="#ef4444" stroke-width="3"/>
<text x="1510" y="408.4" text-anchor="middle" font-size="24" font-weight="700" fill="#dc2626">Dropout</text>
<text x="1510" y="438.4" text-anchor="middle" font-size="24" font-weight="700" fill="#dc2626">(0.2)</text>
<path d="M1590,415.0 L1615,415.0" stroke="#9aa0a6" stroke-width="4" marker-end="url(#ar)"/>
<text x="1660" y="345.0" text-anchor="middle" font-size="27" font-weight="700" fill="#1f2a3a">Output</text>
<ellipse cx="1660" cy="400.0" rx="32" ry="22" fill="none" stroke="#1f2a3a" stroke-width="3"/>
<ellipse cx="1660" cy="457.0" rx="32" ry="22" fill="none" stroke="#1f2a3a" stroke-width="3"/>
<text x="1660" y="515.0" text-anchor="middle" font-size="24" fill="#6b7280">Softmax (2)</text>
<g transform="translate(294,0)"><rect x="0" y="715" width="30" height="30" rx="5" fill="#fde4bb" stroke="#f0a020" stroke-width="3"/>
<text x="40" y="738" font-size="26" fill="#1f2937">GRU Layers</text>
<rect x="240.60000000000002" y="715" width="30" height="30" rx="5" fill="#fbd6e4" stroke="#ec4899" stroke-width="3"/>
<text x="280.6" y="738" font-size="26" fill="#1f2937">Dense Layer</text>
<rect x="495.76000000000005" y="715" width="30" height="30" rx="5" fill="#eeddfd" stroke="#a855f7" stroke-width="3"/>
<text x="535.76" y="738" font-size="26" fill="#1f2937">Layer Normalization</text>
<rect x="867.4000000000001" y="715" width="30" height="30" rx="5" fill="#fbdada" stroke="#ef4444" stroke-width="3"/>
<text x="907.4000000000001" y="738" font-size="26" fill="#1f2937">Dropout</text>
<rect x="1064.3200000000002" y="715" width="30" height="30" rx="5" fill="#cfe0fb" stroke="#3b82f6" stroke-width="3"/>
<text x="1104.3200000000002" y="738" font-size="26" fill="#1f2937">Input</text></g>
</svg>